<!DOCTYPE svg PUBLIC "-//W3C//DTD SVG 1.1//EN" "http://www.w3.org/Graphics/SVG/1.1/DTD/svg11.dtd">

<!-- Uploaded to: SVG Repo, www.svgrepo.com, Transformed by: SVG Repo Mixer Tools -->
<svg height="512px" width="512px" version="1.1" id="Layer_1" xmlns="http://www.w3.org/2000/svg" xmlns:xlink="http://www.w3.org/1999/xlink" viewBox="0 0 512.00 512.00" xml:space="preserve" fill="#000000" stroke="#000000" stroke-width="0.00512">

<g id="SVGRepo_bgCarrier" stroke-width="0"/>

<g id="SVGRepo_tracerCarrier" stroke-linecap="round" stroke-linejoin="round"/>

<g id="SVGRepo_iconCarrier"> <path style="fill:#2D2D2D;" d="M51.2,371.44h409.6c17.2,0,31.2-14,31.2-31.2V67.552c0-17.2-14-31.2-31.2-31.2H51.2 c-17.2,0-31.2,14-31.2,31.2V340.24C20,357.448,34,371.44,51.2,371.44z M186.632,101.552l177.264,102.344L186.632,306.24V101.552z"/> <g> <path style="fill:#DB2B42;" d="M51.2,391.44h409.6c28.16,0,51.2-23.04,51.2-51.2V67.552c0-28.16-23.04-51.2-51.2-51.2H51.2 c-28.16,0-51.2,23.04-51.2,51.2V340.24C0,368.4,23.04,391.44,51.2,391.44z M20,67.552c0-17.2,14-31.2,31.2-31.2h409.6 c17.2,0,31.2,14,31.2,31.2V340.24c0,17.2-14,31.2-31.2,31.2H51.2c-17.2,0-31.2-14-31.2-31.2V67.552z"/> <polygon style="fill:#DB2B42;" points="186.632,101.552 186.632,306.24 363.896,203.896 "/> </g> <g> <path style="fill:#2D2D2D;" d="M512,450.688H157.104c0.96,3.184,1.624,6.496,1.624,10s-0.672,6.816-1.632,10H512V450.688z"/> <path style="fill:#2D2D2D;" d="M90.432,450.688H0v20h90.432c-0.96-3.192-1.632-6.504-1.632-10 C88.808,457.192,89.472,453.88,90.432,450.688z"/> </g> <path style="fill:#DB2B42;" d="M157.104,450.688c-4.32-14.4-17.528-24.968-33.336-24.968s-29.016,10.56-33.336,24.968 c-0.96,3.184-1.624,6.496-1.624,10s0.672,6.816,1.632,10c4.328,14.4,17.528,24.96,33.336,24.96s29.008-10.56,33.336-24.96 c0.96-3.192,1.632-6.504,1.632-10C158.728,457.192,158.056,453.88,157.104,450.688z"/> </g>

</svg>